<svg width="49" height="48" viewBox="0 0 49 48" fill="none" xmlns="http://www.w3.org/2000/svg">
    <path d="M37.5333 3.947C37.2488 2.9298 36.575 2.06561 35.6579 1.54156C34.7408 1.01751 33.6542 0.875756 32.6333 1.147L11.4333 6.747C10.4161 7.03159 9.55196 7.70537 9.0279 8.62246C8.50385 9.53956 8.3621 10.6262 8.63334 11.647L8.93334 12.647L37.9333 4.847L37.5333 3.947ZM40.3333 14.13H40.3233C40.0009 14.0413 39.6678 13.9976 39.3333 14H15.3333L38.5333 7.75L40.3333 14.13Z" fill="#1A1A1A"/>
    <path d="M34.8333 33C35.3278 33 35.8111 32.8534 36.2223 32.5787C36.6334 32.304 36.9538 31.9135 37.143 31.4567C37.3323 30.9999 37.3818 30.4972 37.2853 30.0123C37.1888 29.5273 36.9507 29.0819 36.6011 28.7322C36.2515 28.3826 35.806 28.1445 35.3211 28.048C34.8361 27.9516 34.3335 28.0011 33.8766 28.1903C33.4198 28.3795 33.0294 28.7 32.7547 29.1111C32.48 29.5222 32.3333 30.0055 32.3333 30.5C32.3333 31.163 32.5967 31.7989 33.0656 32.2678C33.5344 32.7366 34.1703 33 34.8333 33ZM29.3333 29V32C29.3365 33.0599 29.759 34.0755 30.5084 34.8249C31.2579 35.5744 32.2735 35.9968 33.3333 36H43.3333V43C43.3302 44.0599 42.9077 45.0755 42.1583 45.8249C41.4088 46.5744 40.3932 46.9968 39.3333 47H11.3333C9.74351 46.9953 8.22014 46.3616 7.09595 45.2374C5.97176 44.1132 5.33809 42.5898 5.33334 41V20C5.33809 18.4102 5.97176 16.8868 7.09595 15.7626C8.22014 14.6384 9.74351 14.0047 11.3333 14H39.3333C40.3932 14.0032 41.4088 14.4256 42.1583 15.1751C42.9077 15.9245 43.3302 16.9401 43.3333 18V25H33.3333C32.2735 25.0032 31.2579 25.4256 30.5084 26.1751C29.759 26.9245 29.3365 27.9401 29.3333 29Z" fill="#1A1A1A"/>
    </svg>
    