<svg width="49" height="48" viewBox="0 0 49 48" fill="none" xmlns="http://www.w3.org/2000/svg">
    <path d="M4.16667 1C2.50982 1 1.16667 2.34315 1.16667 4V18C1.16667 19.6569 2.50982 21 4.16667 21H27.1667C28.8235 21 30.1667 19.6569 30.1667 18V4C30.1667 2.34315 28.8235 1 27.1667 1H4.16667Z" fill="#1A1A1A"/>
    <path d="M36.1667 16C34.5098 16 33.1667 17.3431 33.1667 19V27C33.1667 28.6569 34.5098 30 36.1667 30H44.1667C45.8235 30 47.1667 28.6569 47.1667 27V19C47.1667 17.3431 45.8235 16 44.1667 16H36.1667Z" fill="#1A1A1A"/>
    <path d="M10.6212 24L9.29464 27.2427C8.75638 28.5585 9.72413 30 11.1457 30H20.1876C21.6092 30 22.577 28.5585 22.0387 27.2427L20.7121 24H10.6212Z" fill="#1A1A1A"/>
    <path fill-rule="evenodd" clip-rule="evenodd" d="M1.16667 36C1.16667 34.3431 2.50982 33 4.16667 33H44.1667C45.8235 33 47.1667 34.3431 47.1667 36V44C47.1667 45.6569 45.8235 47 44.1667 47H4.16667C2.50982 47 1.16667 45.6569 1.16667 44V36ZM42.6667 40.0403C42.6667 41.421 41.5474 42.5403 40.1667 42.5403C38.786 42.5403 37.6667 41.421 37.6667 40.0403C37.6667 38.6596 38.786 37.5403 40.1667 37.5403C41.5474 37.5403 42.6667 38.6596 42.6667 40.0403Z" fill="#1A1A1A"/>
    </svg>
    